name baseline.mot
datacolumns 19
datarows 22
range 0.000000 0.034999
endheader
time	ground_force1_vx	ground_force1_vy	ground_force1_vz	ground_force1_px	ground_force1_py	ground_force1_pz	ground_force2_vx	ground_force2_vy	ground_force2_vz	ground_force2_px	ground_force2_py	ground_force2_pz	ground_torque1_x	ground_torque1_y	ground_torque1_z	ground_torque2_x	ground_torque2_y	ground_torque2_z	
0.000000	95.853537	819.716406	64.856842	0.190512	0.000000	0.108204	0.000000	0.000000	0.000000	0.000000	0.000000	0.000000	0.000000	0.581016	0.000000	0.000000	0.000000	0.000000	
0.001669	94.541920	818.833786	64.750833	0.189846	0.000000	0.108069	0.000000	0.000000	0.000000	0.000000	0.000000	0.000000	0.000000	0.885505	0.000000	0.000000	0.000000	0.000000	
0.003351	93.242373	817.958900	64.645709	0.189155	0.000000	0.107934	0.000000	0.000000	0.000000	0.000000	0.000000	0.000000	0.000000	1.185056	0.000000	0.000000	0.000000	0.000000	
0.005002	91.955797	817.086750	64.540461	0.188441	0.000000	0.107798	0.000000	0.000000	0.000000	0.000000	0.000000	0.000000	0.000000	1.478575	0.000000	0.000000	0.000000	0.000000	
0.006669	90.681493	816.211099	64.433921	0.187703	0.000000	0.107663	0.000000	0.000000	0.000000	0.000000	0.000000	0.000000	0.000000	1.765365	0.000000	0.000000	0.000000	0.000000	
0.008352	89.417611	815.325040	64.324849	0.186943	0.000000	0.107528	0.000000	0.000000	0.000000	0.000000	0.000000	0.000000	0.000000	2.045059	0.000000	0.000000	0.000000	0.000000	
0.010003	88.161602	814.421518	64.212015	0.186161	0.000000	0.107393	0.000000	0.000000	0.000000	0.000000	0.000000	0.000000	0.000000	2.317535	0.000000	0.000000	0.000000	0.000000	
0.011670	86.910648	813.493802	64.094269	0.185358	0.000000	0.107259	0.000000	0.000000	0.000000	0.000000	0.000000	0.000000	0.000000	2.582839	0.000000	0.000000	0.000000	0.000000	
0.013332	85.662026	812.535849	63.970591	0.184534	0.000000	0.107125	0.000000	0.000000	0.000000	0.000000	0.000000	0.000000	0.000000	2.841109	0.000000	0.000000	0.000000	0.000000	
0.015001	84.413406	811.542576	63.840130	0.183691	0.000000	0.106993	0.000000	0.000000	0.000000	0.000000	0.000000	0.000000	0.000000	3.092513	0.000000	0.000000	0.000000	0.000000	
0.016671	83.163052	810.510016	63.702227	0.182829	0.000000	0.106862	0.000000	0.000000	0.000000	0.000000	0.000000	0.000000	0.000000	3.337195	0.000000	0.000000	0.000000	0.000000	
0.018355	81.909956	809.435379	63.556417	0.181950	0.000000	0.106732	0.000000	0.000000	0.000000	0.000000	0.000000	0.000000	0.000000	3.575237	0.000000	0.000000	0.000000	0.000000	
0.020000	80.653880	808.317023	63.402419	0.181054	0.000000	0.106604	0.000000	0.000000	0.000000	0.000000	0.000000	0.000000	0.000000	3.806640	0.000000	0.000000	0.000000	0.000000	
0.021670	79.395335	807.154361	63.240127	0.180142	0.000000	0.106477	0.000000	0.000000	0.000000	0.000000	0.000000	0.000000	0.000000	4.031311	0.000000	0.000000	0.000000	0.000000	
0.023358	78.135510	805.947711	63.069573	0.179217	0.000000	0.106353	0.000000	0.000000	0.000000	0.000000	0.000000	0.000000	0.000000	4.249063	0.000000	0.000000	0.000000	0.000000	
0.025004	76.876157	804.698122	62.890908	0.178278	0.000000	0.106230	0.000000	0.000000	0.000000	0.000000	0.000000	0.000000	0.000000	4.459629	0.000000	0.000000	0.000000	0.000000	
0.026669	75.619457	803.407186	62.704366	0.177327	0.000000	0.106110	0.000000	0.000000	0.000000	0.000000	0.000000	0.000000	0.000000	4.662677	0.000000	0.000000	0.000000	0.000000	
0.028342	74.367877	802.076854	62.510240	0.176365	0.000000	0.105992	0.000000	0.000000	0.000000	0.000000	0.000000	0.000000	0.000000	4.857831	0.000000	0.000000	0.000000	0.000000	
0.029997	73.124030	800.709272	62.308852	0.175393	0.000000	0.105876	0.000000	0.000000	0.000000	0.000000	0.000000	0.000000	0.000000	5.044692	0.000000	0.000000	0.000000	0.000000	
0.031672	71.890545	799.306639	62.100533	0.174413	0.000000	0.105763	0.000000	0.000000	0.000000	0.000000	0.000000	0.000000	0.000000	5.222863	0.000000	0.000000	0.000000	0.000000	
0.033350	70.669965	797.871098	61.885609	0.173426	0.000000	0.105653	0.000000	0.000000	0.000000	0.000000	0.000000	0.000000	0.000000	5.391965	0.000000	0.000000	0.000000	0.000000	
0.034999	69.464654	796.404658	61.664388	0.172433	0.000000	0.105545	0.000000	0.000000	0.000000	0.000000	0.000000	0.000000	0.000000	5.551659	0.000000	0.000000	0.000000	0.000000	
